<svg width="41" height="28" viewBox="0 0 41 28" fill="none" xmlns="http://www.w3.org/2000/svg">
<path d="M19.644 15.5691C18.6604 14.3279 17.2983 13.442 15.765 13.0461C16.9612 12.4942 17.9747 11.6119 18.686 10.5031C19.318 9.49746 19.6532 8.33381 19.653 7.14608C19.6451 5.84381 19.2671 4.57064 18.563 3.47509C17.8509 2.31725 16.7971 1.40883 15.547 0.875079C13.9165 0.249425 12.1761 -0.0390487 10.431 0.0270874H0V27.8411H10.6C12.1089 27.87 13.6158 27.7146 15.087 27.3781C16.1829 27.1244 17.2177 26.6564 18.132 26.0011C19.0075 25.3126 19.7065 24.4254 20.171 23.4131C20.7231 22.2821 21.0055 21.0386 20.996 19.7801C21.0307 18.2645 20.5545 16.7812 19.644 15.5691ZM3.68 11.7151V3.31508H9.239C10.6606 3.25472 12.0839 3.38487 13.471 3.70208C14.2595 3.93395 14.9355 4.44703 15.371 5.14408C15.822 5.87647 16.0528 6.72313 16.036 7.58309C16.0689 8.4483 15.8189 9.30065 15.324 10.0111C14.7918 10.6948 14.0475 11.1824 13.208 11.3971C12.0579 11.6585 10.8785 11.7671 9.7 11.7201H3.68V11.7151ZM16.64 22.1231C16.3157 22.7519 15.8332 23.2854 15.24 23.6711C14.5856 24.055 13.8647 24.3118 13.115 24.4281C12.2865 24.5391 11.4506 24.5846 10.615 24.5641H3.68V15.0001H10.111C11.4831 14.9494 12.8549 15.1066 14.18 15.4661C15.0763 15.7415 15.8546 16.309 16.391 17.0781C16.9322 17.8729 17.2119 18.8167 17.191 19.7781C17.2078 20.5937 17.0182 21.4003 16.64 22.1231Z" fill="white"/>
<path d="M41.001 17.3971C41.001 14.0698 40.1473 11.4891 38.44 9.6551C37.6021 8.74906 36.5789 8.03398 35.4401 7.55844C34.3013 7.08289 33.0735 6.85803 31.84 6.8991C30.5731 6.85425 29.3113 7.0817 28.1398 7.56611C26.9683 8.05052 25.9143 8.78061 25.049 9.7071C23.3037 11.5811 22.431 14.2124 22.431 17.6011C22.431 20.8764 23.2937 23.4224 25.019 25.2391C26.7374 26.7978 28.924 27.7427 31.2367 27.926C33.5494 28.1093 35.8576 27.5206 37.8 26.2521C39.3459 25.05 40.4358 23.3569 40.89 21.4521L37.361 21.0201C36.9855 22.2555 36.2514 23.3515 35.252 24.1691C34.3228 24.8408 33.1981 25.1873 32.052 25.1551C31.2652 25.1739 30.4832 25.0266 29.7571 24.7228C29.031 24.419 28.3771 23.9656 27.838 23.3921C26.623 21.9774 25.9571 20.173 25.962 18.3081H40.988C40.996 17.9011 41.001 17.5981 41.001 17.3971ZM26.147 15.4971C26.183 13.92 26.8155 12.4153 27.917 11.2861C28.4366 10.7709 29.0547 10.3658 29.7344 10.095C30.4142 9.82422 31.1415 9.6933 31.873 9.71009C32.6832 9.68938 33.4872 9.85708 34.2216 10.2C34.956 10.5429 35.6007 11.0516 36.105 11.6861C36.9069 12.7998 37.3567 14.1283 37.396 15.5001L26.147 15.4971Z" fill="white"/>
<path d="M37.551 3.2041H26.139L26.11 6.0121H37.571L37.551 3.2041Z" fill="white"/>
</svg>
