<svg width="41" height="41" viewBox="0 0 41 41" fill="none" xmlns="http://www.w3.org/2000/svg">
<path d="M20.5 0C16.4455 0 12.482 1.2023 9.11082 3.45487C5.73961 5.70744 3.11208 8.9091 1.56048 12.655C0.00888228 16.4009 -0.397086 20.5227 0.393911 24.4994C1.18491 28.476 3.13734 32.1287 6.00432 34.9957C8.8713 37.8627 12.524 39.8151 16.5007 40.6061C20.4773 41.3971 24.5991 40.9911 28.345 39.4395C32.0909 37.8879 35.2926 35.2604 37.5451 31.8892C39.7977 28.518 41 24.5545 41 20.5C40.9884 15.0666 38.8248 9.85913 34.9829 6.01715C31.1409 2.17517 25.9334 0.0116245 20.5 0V0ZM34.4 8.93C37.0485 12.0992 38.5274 16.0823 38.589 20.212C35.1681 19.4569 31.6289 19.4095 28.189 20.073C27.245 20.245 26.3027 20.4627 25.362 20.726C25.05 19.8767 24.7167 19.0347 24.362 18.2C24.0027 17.3487 23.624 16.511 23.226 15.687C27.559 14.035 32.243 11.577 34.4 8.93ZM20.5 2.4C25.0306 2.39712 29.3961 4.10008 32.728 7.17C31.471 8.884 27.888 11.381 22.14 13.533C20.1628 9.83735 17.7477 6.39322 14.947 3.275C16.7408 2.69462 18.6146 2.39936 20.5 2.4ZM12.568 4.236C15.407 7.28412 17.8539 10.6751 19.852 14.33C14.3872 16.2028 8.6012 16.9561 2.83901 16.545C3.43764 13.8966 4.62236 11.4161 6.30603 9.28594C7.98971 7.15578 10.1295 5.43015 12.568 4.236ZM2.40001 20.5C2.40001 19.968 2.42501 19.442 2.47001 18.922C3.60943 19.0414 4.75435 19.1008 5.90001 19.1C11.0292 19.0278 16.1151 18.1505 20.972 16.5C21.7617 18.1169 22.4683 19.773 23.089 21.462C21.0729 22.1863 19.1307 23.1018 17.289 24.196C12.789 26.876 9.48901 30.324 8.12701 33.702C6.31812 32.0118 4.87625 29.9676 3.89102 27.6964C2.90579 25.4252 2.39827 22.9757 2.40001 20.5ZM20.5 38.6C16.7754 38.6025 13.1418 37.4495 10.1 35.3C11.013 32.215 14.1 28.879 18.517 26.25C20.2182 25.2441 22.0117 24.4033 23.873 23.739C25.2962 28.2358 26.1486 32.8936 26.41 37.603C24.5095 38.263 22.5119 38.6 20.5 38.6ZM28.754 36.6C28.4309 31.9847 27.5581 27.4244 26.154 23.016C30.1574 21.8275 34.4012 21.7017 38.468 22.651C38.1112 25.5926 37.0392 28.402 35.3459 30.8337C33.6525 33.2653 31.3893 35.2451 28.754 36.6Z" fill="white"/>
</svg>
