<svg width="41" height="41" viewBox="0 0 41 41" fill="none" xmlns="http://www.w3.org/2000/svg">
<path d="M29 1.5H12C6.20101 1.5 1.5 6.20101 1.5 12V29C1.5 34.799 6.20101 39.5 12 39.5H29C34.799 39.5 39.5 34.799 39.5 29V12C39.5 6.20101 34.799 1.5 29 1.5Z" stroke="white" stroke-width="3"/>
<path d="M21 26.5C24.0376 26.5 26.5 24.0376 26.5 21C26.5 17.9624 24.0376 15.5 21 15.5C17.9624 15.5 15.5 17.9624 15.5 21C15.5 24.0376 17.9624 26.5 21 26.5Z" stroke="white" stroke-width="3"/>
<path d="M30 12C31.6569 12 33 10.6569 33 9C33 7.34315 31.6569 6 30 6C28.3431 6 27 7.34315 27 9C27 10.6569 28.3431 12 30 12Z" fill="white"/>
<path d="M30 10.5C30.8284 10.5 31.5 9.82843 31.5 9C31.5 8.17157 30.8284 7.5 30 7.5C29.1716 7.5 28.5 8.17157 28.5 9C28.5 9.82843 29.1716 10.5 30 10.5Z" stroke="white" stroke-width="3"/>
</svg>
